<svg width="80" height="80" viewBox="0 0 80 80" fill="none" xmlns="http://www.w3.org/2000/svg"><path d="M23.75 71.25H56.25M40 58.75V71.25M8.75 8.75H71.25V56.25H8.75V8.75Z" stroke="#666666" stroke-width="1.5" stroke-linecap="round" stroke-linejoin="round"/><path d="M30 15C35.525 15 40 19.3875 40 24.8C40 19.3875 44.475 15 50 15C55.525 15 60 19.3875 60 24.8C60 32.9575 51.915 35.835 40.98 48.82C40.8596 48.9626 40.7095 49.0772 40.5403 49.1559C40.371 49.2345 40.1866 49.2752 40 49.2752C39.8134 49.2752 39.629 49.2345 39.4597 49.1559C39.2905 49.0772 39.1404 48.9626 39.02 48.82C28.085 35.835 20 32.9575 20 24.8C20 19.3875 24.475 15 30 15Z" fill="#F24E1E"/></svg>